<?xml version="1.0" encoding="UTF-8" standalone="no"?>
<svg
   role="img"
   viewBox="0 0 24 24"
   version="1.1"
   id="svg6"
   sodipodi:docname="github.svg"
   inkscape:version="1.2.2 (b0a8486541, 2022-12-01)"
   xmlns:inkscape="http://www.inkscape.org/namespaces/inkscape"
   xmlns:sodipodi="http://sodipodi.sourceforge.net/DTD/sodipodi-0.dtd"
   xmlns="http://www.w3.org/2000/svg"
   xmlns:svg="http://www.w3.org/2000/svg"
   xmlns:rdf="http://www.w3.org/1999/02/22-rdf-syntax-ns#"
   xmlns:cc="http://creativecommons.org/ns#"
   xmlns:dc="http://purl.org/dc/elements/1.1/">
  <defs
     id="defs10" />
  <sodipodi:namedview
     id="namedview8"
     pagecolor="#ffffff"
     bordercolor="#000000"
     borderopacity="0.25"
     inkscape:showpageshadow="2"
     inkscape:pageopacity="0.0"
     inkscape:pagecheckerboard="0"
     inkscape:deskcolor="#d1d1d1"
     showgrid="false"
     inkscape:zoom="19.833333"
     inkscape:cx="12"
     inkscape:cy="12.02521"
     inkscape:window-width="1920"
     inkscape:window-height="1016"
     inkscape:window-x="0"
     inkscape:window-y="0"
     inkscape:window-maximized="1"
     inkscape:current-layer="svg6" />
  <title
     id="title2">GitHub</title>
  <path
     d="M12 .297c-6.63 0-12 5.373-12 12 0 5.303 3.438 9.8 8.205 11.385.6.113.82-.258.82-.577 0-.285-.01-1.04-.015-2.04-3.338.724-4.042-1.61-4.042-1.61C4.422 18.07 3.633 17.7 3.633 17.7c-1.087-.744.084-.729.084-.729 1.205.084 1.838 1.236 1.838 1.236 1.07 1.835 2.809 1.305 3.495.998.108-.776.417-1.305.76-1.605-2.665-.3-5.466-1.332-5.466-5.93 0-1.31.465-2.38 1.235-3.22-.135-.303-.54-1.523.105-3.176 0 0 1.005-.322 3.3 1.23.96-.267 1.98-.399 3-.405 1.02.006 2.04.138 3 .405 2.28-1.552 3.285-1.23 3.285-1.23.645 1.653.24 2.873.12 3.176.765.84 1.23 1.91 1.23 3.22 0 4.61-2.805 5.625-5.475 5.92.42.36.81 1.096.81 2.22 0 1.606-.015 2.896-.015 3.286 0 .315.21.69.825.57C20.565 22.092 24 17.592 24 12.297c0-6.627-5.373-12-12-12"
     id="path4" />
  <path
     style="fill:#43c6ac;stroke-width:0.0504202;fill-opacity:1"
     d="M 7.9159664,23.543364 C 6.8856474,23.195379 5.4607618,22.390498 4.487395,21.606652 3.9607743,21.182567 3.0757478,20.298318 2.6690622,19.789916 1.3435679,18.132901 0.46977832,16.1201 0.14097334,13.966387 0.01777616,13.15943 0.02011497,11.39479 0.14545066,10.588235 0.66891817,7.2196402 2.4884985,4.3153182 5.2689076,2.4104331 6.8492536,1.3277228 8.68608,0.63983184 10.638655,0.39946429 c 0.647837,-0.0797505 2.074853,-0.0797505 2.72269,0 4.976153,0.61257861 9.004404,4.13402121 10.233802,8.94625221 0.280159,1.0966265 0.349889,1.6799845 0.350424,2.9315945 5.05e-4,1.181365 -0.0638,1.780258 -0.297752,2.773109 -0.894525,3.796193 -3.638697,6.936772 -7.318385,8.375556 -0.643159,0.25148 -0.935777,0.282074 -1.142514,0.119454 -0.240276,-0.189001 -0.255908,-0.33893 -0.220666,-2.116381 0.04497,-2.268237 -0.03404,-2.827708 -0.494296,-3.499982 l -0.221727,-0.323864 0.261439,-0.03461 c 2.350449,-0.31114 3.909976,-1.310317 4.599694,-2.94699 0.380199,-0.902197 0.498034,-1.572166 0.496917,-2.825286 -7.61e-4,-0.851556 -0.01559,-1.037198 -0.110803,-1.386554 C 19.357306,9.897418 19.011375,9.1941418 18.689511,8.7691694 l -0.2512,-0.3316709 0.09558,-0.3994215 c 0.171476,-0.7166163 0.112266,-1.7578745 -0.1417,-2.4918585 l -0.09595,-0.2773109 -0.339734,-0.014967 c -0.611829,-0.026953 -1.54623,0.3186967 -2.553144,0.9444488 L 14.97479,6.4647277 14.521008,6.3606892 C 13.760605,6.1863519 12.910582,6.0981998 11.989831,6.0981933 11.01341,6.0981857 10.456227,6.1530676 9.5864375,6.334925 L 8.9880005,6.4600472 8.571415,6.2045773 C 7.5486101,5.5773454 6.5994227,5.2271774 5.9945617,5.2539409 L 5.6563129,5.2689079 5.5627189,5.5448 c -0.2643661,0.7792845 -0.315,1.8866914 -0.1191983,2.6069717 l 0.08466,0.3114355 -0.2261042,0.2775953 C 4.539369,9.6772013 4.2272566,10.883917 4.3517315,12.415109 c 0.2436709,2.997445 1.7269648,4.594265 4.7374981,5.100089 l 0.6690615,0.112415 -0.1223572,0.114949 c -0.1853052,0.174084 -0.4265843,0.662797 -0.5304015,1.074331 l -0.092829,0.367981 -0.3167673,0.114747 C 7.9855392,19.556958 7.3028818,19.544341 6.6968264,19.262671 6.2899886,19.07359 5.9770593,18.779535 5.6213929,18.252101 5.1446471,17.545114 4.7266214,17.204382 4.1126974,17.022369 3.7737227,16.921871 3.5526402,16.919585 3.3261116,17.014234 c -0.3057036,0.127731 -0.1955917,0.377183 0.3214959,0.728331 0.5246802,0.356303 0.9438844,0.903268 1.2524512,1.634158 0.3742413,0.886451 0.8904425,1.378966 1.7640843,1.683139 0.3627474,0.126297 0.4558725,0.13731 1.1509831,0.136114 0.4159663,-7.16e-4 0.852731,-0.02567 0.9705882,-0.05546 L 9,21.086349 v 1.058449 c 0,0.836304 -0.01587,1.091893 -0.075616,1.217797 -0.1599747,0.337122 -0.4118183,0.382267 -1.0084176,0.180769 z"
     id="path1588" />
  <metadata
     id="metadata1606">
    <rdf:RDF>
      <cc:Work
         rdf:about="">
        <dc:title>GitHub</dc:title>
      </cc:Work>
    </rdf:RDF>
  </metadata>
</svg>
