<?xml version="1.0" encoding="UTF-8" standalone="no"?>
<svg
   role="img"
   viewBox="0 0 24 24"
   version="1.1"
   id="svg1449"
   sodipodi:docname="gmail.svg"
   inkscape:version="1.2.2 (b0a8486541, 2022-12-01)"
   xmlns:inkscape="http://www.inkscape.org/namespaces/inkscape"
   xmlns:sodipodi="http://sodipodi.sourceforge.net/DTD/sodipodi-0.dtd"
   xmlns="http://www.w3.org/2000/svg"
   xmlns:svg="http://www.w3.org/2000/svg">
  <defs
     id="defs1453" />
  <sodipodi:namedview
     id="namedview1451"
     pagecolor="#ffffff"
     bordercolor="#000000"
     borderopacity="0.25"
     inkscape:showpageshadow="2"
     inkscape:pageopacity="0.0"
     inkscape:pagecheckerboard="0"
     inkscape:deskcolor="#d1d1d1"
     showgrid="false"
     inkscape:zoom="22"
     inkscape:cx="12"
     inkscape:cy="12"
     inkscape:window-width="1366"
     inkscape:window-height="731"
     inkscape:window-x="0"
     inkscape:window-y="0"
     inkscape:window-maximized="1"
     inkscape:current-layer="svg1449" />
  <title
     id="title1445">Gmail</title>
  <path
     d="M24 5.457v13.909c0 .904-.732 1.636-1.636 1.636h-3.819V11.73L12 16.64l-6.545-4.91v9.273H1.636A1.636 1.636 0 0 1 0 19.366V5.457c0-2.023 2.309-3.178 3.927-1.964L5.455 4.64 12 9.548l6.545-4.91 1.528-1.145C21.69 2.28 24 3.434 24 5.457z"
     id="path1447" />
  <path
     style="fill:#43c6ac;stroke:#000000;stroke-width:0.0454545"
     d="M 1.1759169,20.906142 C 0.70976741,20.76261 0.26691552,20.332533 0.1024454,19.863636 c -0.07470868,-0.212991 -0.07971813,-0.684287 -0.07971813,-7.5 0,-6.9308806 0.0039285,-7.2855461 0.08357751,-7.5454542 C 0.24043213,4.380502 0.442846,4.0489369 0.76690168,3.7360875 1.5341602,2.9953618 2.5941068,2.8182157 3.5121273,3.2772851 3.6429573,3.3427085 5.60625,4.787426 7.875,6.4877684 L 12,9.5793 16.125,6.4877684 c 2.26875,-1.7003424 4.232043,-3.1450599 4.362873,-3.2104833 0.918793,-0.4594561 2.027231,-0.26985 2.7664,0.4732124 0.308394,0.3100181 0.477543,0.582152 0.621259,0.9995025 l 0.101741,0.2954545 0.01273,7.0867545 c 0.0077,4.307567 -0.0042,7.209081 -0.0305,7.398681 -0.08091,0.583834 -0.391753,1.021986 -0.904022,1.274258 l -0.303369,0.149397 -2.103114,0.01308 -2.103114,0.01308 -0.01158,-4.635312 -0.01158,-4.635311 -3.238423,2.429048 C 13.503171,15.47511 12.025234,16.568182 12,16.568182 c -0.02523,0 -1.503171,-1.093072 -3.2843036,-2.429049 l -3.2384237,-2.429048 -0.011578,4.633594 -0.011578,4.633594 -2.0338766,-0.0032 c -1.6249998,-0.0025 -2.0761833,-0.01619 -2.2443233,-0.06797 z"
     id="path1628" />
</svg>
