<?xml version="1.0" encoding="UTF-8" standalone="no"?>
<svg
   role="img"
   viewBox="0 0 24 24"
   version="1.1"
   id="svg2444"
   sodipodi:docname="linkedin.svg"
   inkscape:version="1.2.2 (b0a8486541, 2022-12-01)"
   xmlns:inkscape="http://www.inkscape.org/namespaces/inkscape"
   xmlns:sodipodi="http://sodipodi.sourceforge.net/DTD/sodipodi-0.dtd"
   xmlns="http://www.w3.org/2000/svg"
   xmlns:svg="http://www.w3.org/2000/svg"
   xmlns:rdf="http://www.w3.org/1999/02/22-rdf-syntax-ns#"
   xmlns:cc="http://creativecommons.org/ns#"
   xmlns:dc="http://purl.org/dc/elements/1.1/">
  <defs
     id="defs2448" />
  <sodipodi:namedview
     id="namedview2446"
     pagecolor="#ffffff"
     bordercolor="#000000"
     borderopacity="0.25"
     inkscape:showpageshadow="2"
     inkscape:pageopacity="0.0"
     inkscape:pagecheckerboard="0"
     inkscape:deskcolor="#d1d1d1"
     showgrid="false"
     inkscape:zoom="19.833333"
     inkscape:cx="12"
     inkscape:cy="12.02521"
     inkscape:window-width="1920"
     inkscape:window-height="1016"
     inkscape:window-x="0"
     inkscape:window-y="0"
     inkscape:window-maximized="1"
     inkscape:current-layer="svg2444" />
  <title
     id="title2440">LinkedIn</title>
  <path
     d="M20.447 20.452h-3.554v-5.569c0-1.328-.027-3.037-1.852-3.037-1.853 0-2.136 1.445-2.136 2.939v5.667H9.351V9h3.414v1.561h.046c.477-.9 1.637-1.85 3.37-1.85 3.601 0 4.267 2.37 4.267 5.455v6.286zM5.337 7.433c-1.144 0-2.063-.926-2.063-2.065 0-1.138.92-2.063 2.063-2.063 1.14 0 2.064.925 2.064 2.063 0 1.139-.925 2.065-2.064 2.065zm1.782 13.019H3.555V9h3.564v11.452zM22.225 0H1.771C.792 0 0 .774 0 1.729v20.542C0 23.227.792 24 1.771 24h20.451C23.2 24 24 23.227 24 22.271V1.729C24 .774 23.2 0 22.222 0h.003z"
     id="path2442" />
  <path
     style="fill:#000000;stroke-width:0.0504202;fill-opacity:1"
     d="M 1.4934667,23.94316 C 0.91489946,23.847063 0.41834196,23.461664 0.16482955,22.91195 L 0.05042017,22.663866 V 12 1.3361345 L 0.18505121,1.0489161 C 0.4422901,0.50012924 0.91337506,0.15526892 1.5460212,0.05261054 1.9890259,-0.01927507 22.012152,-0.01908337 22.455222,0.05281072 23.071947,0.15288277 23.564161,0.51405524 23.816069,1.0513633 L 23.94958,1.3361345 V 12 22.663866 l -0.133511,0.284771 c -0.256984,0.548134 -0.757942,0.908516 -1.389935,0.999899 -0.437144,0.06321 -20.5508402,0.05804 -20.9326673,-0.0054 z M 7.1344538,14.722689 V 8.9747899 h -1.789916 -1.789916 v 5.7478991 5.747899 h 1.789916 1.789916 z m 5.7983192,2.625497 c 0,-1.910679 0.0206,-3.270507 0.05308,-3.504043 0.184117,-1.323747 0.846287,-1.959502 2.041391,-1.959956 0.929192,-3.53e-4 1.465977,0.432295 1.722033,1.387956 0.07445,0.277862 0.08691,0.732292 0.103059,3.757269 l 0.01837,3.441176 h 1.812547 1.812547 l -6.85e-4,-3.037815 C 20.494003,12.514287 20.40542,11.627008 19.799191,10.462185 19.56655,10.015183 18.975785,9.4135745 18.554622,9.1947721 17.559962,8.6780254 16.078,8.5394909 14.94958,8.8577713 14.207718,9.0670195 13.341776,9.6762832 12.976389,10.246079 l -0.169666,0.264582 -0.01392,-0.7679356 -0.01392,-0.7679355 h -1.73818 -1.738182 v 5.7478991 5.747899 h 1.815126 1.815126 z M 5.8469768,7.3848953 C 6.2673494,7.2754024 6.6039514,7.0774588 6.8698079,6.7834054 7.9859582,5.5488776 7.3164928,3.5992607 5.6800679,3.318645 4.6235533,3.1374729 3.5957963,3.7940873 3.3282781,4.8211591 3.132975,5.5709783 3.3434404,6.3430024 3.8820152,6.852364 4.4406026,7.3806529 5.1378182,7.5696076 5.8469768,7.3848953 Z"
     id="path4019" />
  <metadata
     id="metadata4057">
    <rdf:RDF>
      <cc:Work
         rdf:about="">
        <dc:title>LinkedIn</dc:title>
      </cc:Work>
    </rdf:RDF>
  </metadata>
</svg>
