<?xml version="1.0" encoding="UTF-8" standalone="no"?>
<svg
   role="img"
   viewBox="0 0 24 24"
   version="1.1"
   id="svg2444"
   sodipodi:docname="linkedin.svg"
   inkscape:version="1.2.2 (b0a8486541, 2022-12-01)"
   xmlns:inkscape="http://www.inkscape.org/namespaces/inkscape"
   xmlns:sodipodi="http://sodipodi.sourceforge.net/DTD/sodipodi-0.dtd"
   xmlns="http://www.w3.org/2000/svg"
   xmlns:svg="http://www.w3.org/2000/svg"
   xmlns:rdf="http://www.w3.org/1999/02/22-rdf-syntax-ns#"
   xmlns:cc="http://creativecommons.org/ns#"
   xmlns:dc="http://purl.org/dc/elements/1.1/">
  <defs
     id="defs2448" />
  <sodipodi:namedview
     id="namedview2446"
     pagecolor="#ffffff"
     bordercolor="#000000"
     borderopacity="0.25"
     inkscape:showpageshadow="2"
     inkscape:pageopacity="0.0"
     inkscape:pagecheckerboard="0"
     inkscape:deskcolor="#d1d1d1"
     showgrid="false"
     inkscape:zoom="19.833333"
     inkscape:cx="12"
     inkscape:cy="12.02521"
     inkscape:window-width="1920"
     inkscape:window-height="1016"
     inkscape:window-x="0"
     inkscape:window-y="0"
     inkscape:window-maximized="1"
     inkscape:current-layer="svg2444" />
  <title
     id="title2440">LinkedIn</title>
  <path
     d="M20.447 20.452h-3.554v-5.569c0-1.328-.027-3.037-1.852-3.037-1.853 0-2.136 1.445-2.136 2.939v5.667H9.351V9h3.414v1.561h.046c.477-.9 1.637-1.85 3.37-1.85 3.601 0 4.267 2.37 4.267 5.455v6.286zM5.337 7.433c-1.144 0-2.063-.926-2.063-2.065 0-1.138.92-2.063 2.063-2.063 1.14 0 2.064.925 2.064 2.063 0 1.139-.925 2.065-2.064 2.065zm1.782 13.019H3.555V9h3.564v11.452zM22.225 0H1.771C.792 0 0 .774 0 1.729v20.542C0 23.227.792 24 1.771 24h20.451C23.2 24 24 23.227 24 22.271V1.729C24 .774 23.2 0 22.222 0h.003z"
     id="path2442" />
  <path
     style="fill:#000000;stroke-width:0.0504202;fill-opacity:1"
     d="M 1.4934667,23.94316 C 0.91489946,23.847063 0.41834196,23.461664 0.16482955,22.91195 L 0.05042017,22.663866 V 12 1.3361345 L 0.18505121,1.0489161 C 0.4422901,0.50012924 0.91337506,0.15526892 1.5460212,0.05261054 1.9890259,-0.01927507 22.012152,-0.01908337 22.455222,0.05281072 23.071947,0.15288277 23.564161,0.51405524 23.816069,1.0513633 L 23.94958,1.3361345 V 12 22.663866 l -0.133511,0.284771 c -0.256984,0.548134 -0.757942,0.908516 -1.389935,0.999899 -0.437144,0.06321 -20.5508402,0.05804 -20.9326673,-0.0054 z M 7.1344538,14.722689 V 8.9747899 h -1.789916 -1.789916 v 5.7478991 5.747899 h 1.789916 1.789916 z m 5.7983192,2.625497 c 0,-1.910679 0.0206,-3.270507 0.05308,-3.504043 0.184117,-1.323747 0.846287,-1.959502 2.041391,-1.959956 0.929192,-3.53e-4 1.465977,0.432295 1.722033,1.387956 0.07445,0.277862 0.08691,0.732292 0.103059,3.757269 l 0.01837,3.441176 h 1.812547 1.812547 l -6.85e-4,-3.037815 C 20.494003,12.514287 20.40542,11.627008 19.799191,10.462185 19.56655,10.015183 18.975785,9.4135745 18.554622,9.1947721 17.559962,8.6780254 16.078,8.5394909 14.94958,8.8577713 14.207718,9.0670195 13.341776,9.6762832 12.976389,10.246079 l -0.169666,0.264582 -0.01392,-0.7679356 -0.01392,-0.7679355 h -1.73818 -1.738182 v 5.7478991 5.747899 h 1.815126 1.815126 z M 5.8469768,7.3848953 C 6.2673494,7.2754024 6.6039514,7.0774588 6.8698079,6.7834054 7.9859582,5.5488776 7.3164928,3.5992607 5.6800679,3.318645 4.6235533,3.1374729 3.5957963,3.7940873 3.3282781,4.8211591 3.132975,5.5709783 3.3434404,6.3430024 3.8820152,6.852364 4.4406026,7.3806529 5.1378182,7.5696076 5.8469768,7.3848953 Z"
     id="path4019" />
  <metadata
     id="metadata4057">
    <rdf:RDF>
      <cc:Work
         rdf:about="">
        <dc:title>LinkedIn</dc:title>
      </cc:Work>
    </rdf:RDF>
  </metadata>
  <path
     style="fill:none;stroke:#000000;stroke-width:0.0504202;stroke-opacity:1"
     d="M 1.4934667,23.94316 C 0.91489948,23.847063 0.41834197,23.461665 0.16482955,22.91195 L 0.05042017,22.663866 V 11.99894 1.3340141 L 0.21640329,0.99685449 C 0.47985117,0.46171584 0.9107738,0.15569102 1.5460212,0.05261054 1.9890259,-0.01927507 22.012152,-0.01908337 22.455222,0.05281073 23.071948,0.15288278 23.564161,0.51405525 23.81607,1.0513633 l 0.13351,0.2847712 V 12 22.663866 l -0.13351,0.284771 c -0.256985,0.548134 -0.757943,0.908517 -1.389935,0.9999 -0.437145,0.06321 -20.5508411,0.05804 -20.9326683,-0.0054 z M 7.1344539,14.722689 V 8.9747901 h -1.789916 -1.789916 v 5.7478989 5.7479 h 1.789916 1.789916 z m 5.7983191,2.625498 c 0,-1.910679 0.0206,-3.270508 0.05308,-3.504044 0.184116,-1.323747 0.846286,-1.959502 2.04139,-1.959955 0.929192,-3.53e-4 1.465977,0.432295 1.722033,1.387955 0.07445,0.277862 0.08691,0.732292 0.103059,3.757269 l 0.01837,3.441177 H 18.683253 20.4958 L 20.4944,17.432773 C 20.4929,14.180614 20.44836,12.840444 20.316136,12.06421 20.139806,11.029074 19.810392,10.307466 19.26085,9.7525192 18.537666,9.0222233 17.643706,8.7092956 16.26054,8.7022706 c -0.783815,-0.00398 -1.269121,0.098365 -1.890756,0.3987413 -0.563605,0.272336 -0.983579,0.6072197 -1.310924,1.0453191 l -0.252101,0.337397 -0.01392,-0.7544692 -0.01392,-0.7544687 H 11.040704 9.3025212 v 5.7478989 5.7479 h 1.8151258 1.815126 z M 5.8396841,7.3867947 C 6.256607,7.2782003 6.5117073,7.1335721 6.8058662,6.8390215 7.6240247,6.0197729 7.62586,4.7201238 6.8100107,3.9042748 5.9701746,3.0644384 4.608063,3.0907883 3.8115692,3.9622794 2.426365,5.4779134 3.8619499,7.901929 5.8396841,7.3867947 Z"
     id="path4765" />
  <path
     style="fill:none;stroke:#000000;stroke-width:0.0504202;stroke-opacity:1"
     d="M 1.5027862,23.949137 C 0.93354521,23.865934 0.47549345,23.52517 0.20434284,22.983172 L 0.02521008,22.625107 V 12 1.3748932 L 0.20434284,1.0168279 C 0.48490665,0.45601387 0.92625178,0.13785923 1.5484705,0.04788 2.0055023,-0.01821151 22.045475,-0.01367682 22.453979,0.05261054 23.096471,0.15686665 23.516423,0.45867122 23.795658,1.0168279 L 23.97479,1.3748932 V 12 22.625107 l -0.179132,0.358065 c -0.279235,0.558157 -0.699187,0.859962 -1.341679,0.964218 -0.375701,0.06096 -20.5345508,0.06264 -20.9511928,0.0017 z M 7.1344539,14.722689 V 8.9747901 h -1.789916 -1.789916 v 5.7478989 5.7479 h 1.789916 1.789916 z m 5.8125061,2.382353 c 0.01459,-2.52489 0.03565,-3.428516 0.08431,-3.617647 0.09666,-0.375683 0.317789,-0.836136 0.502678,-1.046712 0.348007,-0.396358 1.183569,-0.647758 1.814957,-0.546076 0.747947,0.120453 1.154703,0.51306 1.401186,1.352445 0.07574,0.257923 0.0874,0.682276 0.103271,3.75715 l 0.01789,3.466387 h 1.820054 1.820054 L 20.47978,16.827731 C 20.46241,14.82416 20.437,13.082773 20.42332,12.957983 20.36159,12.395056 20.33375,12.201083 20.260494,11.82353 20.017392,10.57059 19.406903,9.6622887 18.485766,9.1830612 17.999056,8.9298465 17.53874,8.8054701 16.778611,8.7217912 15.90609,8.6257393 14.999428,8.7701729 14.319328,9.1135615 13.766716,9.3925802 13.172203,9.9227911 12.886522,10.391396 L 12.78189,10.563025 12.781701,9.7682457 12.781513,8.973466 11.054622,8.986733 9.3277312,9 l -0.012819,5.735294 -0.01282,5.735295 h 1.8127118 1.812712 z M 5.7328125,7.4059872 C 6.6038406,7.2227835 7.2453994,6.5477855 7.3875717,5.6649793 7.5135969,4.8824338 7.101409,4.002147 6.4162867,3.5906589 5.6031359,3.1022763 4.4730237,3.2526114 3.8357171,3.9339436 2.9075549,4.9262242 3.138279,6.4855494 4.3153281,7.1753462 c 0.433392,0.2539845 0.9256715,0.3340845 1.4174844,0.230641 z"
     id="path4767" />
  <path
     style="fill:#43c6ac;stroke:#000000;stroke-width:0.0504202;stroke-opacity:1;fill-opacity:1"
     d="M 1.4988854,23.948662 C 0.91743949,23.863883 0.42140878,23.482396 0.15191636,22.912735 L 0.02521008,22.6449 V 12.004501 1.3641011 L 0.16216163,1.0728068 C 0.35008678,0.67309241 0.73405,0.29813385 1.1108063,0.14640959 L 1.4117647,0.02521008 11.747401,0.01166099 c 6.252793,-0.00819686 10.470694,0.0051668 10.67753,0.03382989 0.63955,0.08862793 1.142585,0.4544679 1.412571,1.02731592 L 23.97479,1.3641011 V 12 22.635899 l -0.137288,0.291294 c -0.265313,0.562932 -0.7695,0.935779 -1.385972,1.024927 -0.384886,0.05566 -20.570048,0.05233 -20.9526446,-0.0035 z M 7.1344539,14.722689 V 8.9747901 h -1.789916 -1.789916 v 5.7478989 5.7479 h 1.789916 1.789916 z m 5.8105151,2.357143 c 0.01595,-3.002394 0.02778,-3.424059 0.103326,-3.681519 0.114801,-0.391236 0.305108,-0.756285 0.515902,-0.989609 0.355328,-0.393305 1.154918,-0.62113 1.803839,-0.513962 0.741743,0.122495 1.13412,0.49876 1.385125,1.328246 0.06888,0.227609 0.0827,0.750344 0.09931,3.756004 l 0.0193,3.491597 h 1.788386 c 1.576479,0 1.791975,-0.0094 1.818677,-0.07894 0.01666,-0.04342 0.0061,-1.807493 -0.02337,-3.920168 -0.04888,-3.499333 -0.06274,-3.890595 -0.155712,-4.395852 C 20.095422,10.965144 19.809891,10.356073 19.21076,9.7526623 18.752968,9.2916002 18.326217,9.0494568 17.647059,8.865401 17.305165,8.7727459 17.101555,8.7554638 16.310925,8.7519934 15.467057,8.7482875 15.342109,8.7591591 15,8.8660353 14.172679,9.1244946 13.473268,9.6094544 12.999073,10.253446 l -0.21756,0.295463 V 9.7618494 8.9747901 H 11.22479 c -0.856197,0 -1.62409,0.013473 -1.7064277,0.029941 l -0.149705,0.029941 -0.036371,5.6670089 c -0.020004,3.116856 -0.022201,5.689936 -0.00488,5.717959 0.020248,0.03276 0.6682085,0.05095 1.8155217,0.05095 h 1.784035 z M 5.7299487,7.3894312 C 5.9141935,7.3503793 6.1621085,7.2688559 6.2808712,7.208268 6.6264147,7.031985 7.0181557,6.6256635 7.199147,6.2558149 7.3518793,5.9437115 7.3613447,5.8920041 7.3613447,5.369748 7.3613447,4.8727446 7.3472235,4.7849935 7.2254174,4.5250768 7.0358921,4.1206556 6.6367231,3.7149985 6.2324618,3.5159813 5.9198915,3.3621036 5.8700522,3.3529412 5.3455982,3.3529412 c -0.5200511,0 -0.5774233,0.010299 -0.8947459,0.1606211 -0.805931,0.3817852 -1.2893733,1.2819385 -1.1507566,2.1426696 0.1382521,0.8584674 0.7820712,1.550047 1.6158708,1.735742 0.364683,0.081218 0.4196077,0.081047 0.8139822,-0.00254 z"
     id="path4769" />
</svg>
